<?xml version="1.0" standalone="no"?>
<!DOCTYPE svg PUBLIC "-//W3C//DTD SVG 20010904//EN"
 "http://www.w3.org/TR/2001/REC-SVG-20010904/DTD/svg10.dtd">
<svg version="1.0" xmlns="http://www.w3.org/2000/svg"
 width="512.000000pt" height="512.000000pt" viewBox="0 0 512.000000 512.000000"
 preserveAspectRatio="xMidYMid meet">

<g transform="translate(0.000000,512.000000) scale(0.100000,-0.100000)"
fill="#000000" stroke="none">
<path d="M1881 5106 c-14 -8 -28 -22 -32 -32 -12 -31 -10 -280 2 -308 26 -55
112 -55 138 0 14 33 15 275 0 307 -11 24 -47 47 -72 47 -7 -1 -23 -7 -36 -14z"/>
<path d="M1021 4864 c-12 -15 -21 -36 -21 -48 0 -25 124 -244 152 -268 44 -38
128 -3 128 53 0 23 -93 198 -137 257 -20 26 -31 32 -63 32 -30 0 -43 -6 -59
-26z"/>
<path d="M2707 4873 c-31 -35 -147 -248 -147 -270 0 -58 84 -94 128 -55 28 24
152 243 152 268 0 12 -9 33 -21 48 -25 32 -86 37 -112 9z"/>
<path d="M1745 4546 c-128 -21 -233 -54 -340 -105 -648 -312 -879 -1108 -499
-1718 66 -106 106 -126 159 -80 38 33 36 74 -9 141 -343 517 -158 1225 393
1501 336 169 696 151 1032 -51 66 -39 87 -42 123 -13 20 16 26 29 26 59 0 48
-32 76 -158 142 -100 53 -203 89 -317 113 -107 22 -309 28 -410 11z"/>
<path d="M3138 4310 c-275 -50 -506 -230 -603 -469 l-23 -56 -73 -7 c-310 -32
-561 -232 -649 -518 -17 -53 -20 -56 -86 -90 -87 -44 -127 -71 -186 -129 -40
-38 -48 -51 -48 -81 0 -46 33 -80 77 -80 22 0 44 12 79 43 66 59 122 93 207
126 80 30 68 11 116 177 40 135 147 262 278 327 90 46 214 72 299 63 56 -6 65
-4 88 16 15 14 38 57 55 105 70 195 222 338 427 399 81 25 247 25 329 0 152
-45 303 -162 375 -289 43 -76 60 -84 152 -66 172 33 321 6 455 -84 169 -113
263 -302 249 -502 -3 -49 -9 -105 -12 -123 -6 -29 -2 -36 31 -65 139 -121 177
-163 216 -242 88 -179 89 -349 3 -525 -51 -102 -152 -203 -254 -254 -114 -55
-182 -66 -432 -66 -119 0 -224 -3 -233 -6 -24 -9 -44 -55 -38 -87 3 -15 17
-37 32 -48 25 -20 35 -21 281 -16 286 5 320 10 455 76 191 94 328 259 387 466
17 62 22 106 22 195 0 140 -16 209 -80 339 -38 78 -62 110 -132 180 l-85 86 2
105 c6 339 -221 640 -549 726 -64 17 -227 24 -301 14 -34 -5 -38 -2 -86 60
-99 129 -256 235 -413 280 -84 23 -257 34 -332 20z"/>
<path d="M416 4259 c-20 -16 -26 -29 -26 -59 0 -32 6 -43 33 -63 58 -44 233
-137 256 -137 56 0 91 84 54 128 -25 29 -243 152 -269 152 -12 0 -33 -9 -48
-21z"/>
<path d="M199 3425 c-50 -27 -45 -110 7 -134 14 -6 79 -11 154 -11 75 0 140 5
154 11 55 26 55 112 0 138 -38 17 -282 14 -315 -4z"/>
<path d="M1960 2865 c-210 -42 -405 -163 -537 -330 -63 -80 -67 -84 -97 -77
-17 4 -89 7 -161 6 -102 0 -146 -5 -208 -22 -291 -83 -509 -304 -588 -597 -16
-60 -22 -112 -23 -210 l-1 -130 -95 -95 c-124 -124 -182 -223 -227 -391 -24
-89 -23 -289 1 -384 63 -243 230 -447 451 -551 181 -84 77 -78 1360 -82 810
-2 1147 1 1166 8 47 20 63 81 30 121 l-19 24 -1154 5 -1153 5 -80 28 c-207 74
-357 222 -429 426 -27 78 -30 98 -30 206 0 133 13 195 66 299 47 94 110 169
201 238 l82 64 -2 55 c-9 239 -8 273 16 349 59 190 171 324 344 412 128 64
294 84 442 53 125 -27 122 -28 209 103 140 210 395 335 651 319 297 -19 555
-215 656 -499 17 -48 38 -93 47 -100 10 -8 56 -13 136 -14 95 -1 136 -6 191
-24 159 -50 282 -140 369 -268 46 -66 106 -214 106 -259 0 -37 49 -79 113 -98
57 -17 60 -17 85 2 58 43 52 109 -12 139 -28 14 -36 25 -49 74 -41 146 -142
302 -261 402 -81 67 -238 148 -336 173 -36 8 -104 19 -152 22 -54 4 -88 10
-88 17 0 20 -59 135 -101 198 -131 193 -338 332 -564 379 -105 22 -259 23
-355 4z"/>
<path d="M540 2654 c-143 -82 -150 -88 -150 -135 0 -29 6 -42 26 -58 15 -12
36 -21 48 -21 26 0 244 123 269 152 37 44 2 128 -55 128 -13 0 -75 -30 -138
-66z"/>
<path d="M4039 1346 c-108 -30 -221 -118 -269 -209 -21 -40 -28 -45 -80 -55
-128 -27 -237 -111 -291 -227 -24 -51 -39 -69 -73 -89 -62 -36 -132 -111 -162
-172 -119 -243 25 -532 291 -584 43 -8 248 -10 706 -8 l645 3 75 37 c93 46
158 113 202 206 28 60 31 77 32 162 0 87 -3 101 -34 166 -18 40 -51 89 -72
110 -35 35 -39 43 -39 90 0 121 -73 259 -172 327 -70 48 -127 67 -218 74 -74
6 -76 6 -130 58 -31 29 -75 62 -98 74 -95 48 -218 63 -313 37z m181 -156 c60
-16 128 -67 160 -117 37 -59 68 -74 124 -61 88 20 186 -10 243 -75 49 -56 67
-115 60 -199 l-6 -71 58 -56 c79 -76 95 -110 96 -196 0 -56 -5 -80 -26 -120
-28 -56 -91 -109 -147 -125 -60 -16 -1287 -13 -1335 4 -89 32 -154 115 -164
208 -11 114 40 202 151 257 39 19 71 42 76 55 4 11 16 43 25 70 36 101 114
156 232 164 83 5 99 17 128 97 47 127 194 202 325 165z"/>
</g>
</svg>
